<?xml version="1.0" standalone="no"?><!DOCTYPE svg PUBLIC "-//W3C//DTD SVG 1.1//EN" "http://www.w3.org/Graphics/SVG/1.1/DTD/svg11.dtd"><svg t="1596794034365" class="icon" viewBox="0 0 1024 1024" version="1.1" xmlns="http://www.w3.org/2000/svg" p-id="1497" xmlns:xlink="http://www.w3.org/1999/xlink" width="200" height="200"><defs><style type="text/css"></style></defs><path d="M512 411.030504c-62.40096 0-112.795903 53.428378-112.795903 119.34972 0 65.921342 50.402925 119.317789 112.795903 119.317789 62.392978 0 112.795903-53.428378 112.795903-119.317789 0-65.921342-50.498718-119.34972-112.795903-119.34972z m51.879729 171.413052a73.233518 73.233518 0 0 1-51.879729 21.569322c-40.520312 0-73.369224-32.968654-73.369224-73.632654s32.848913-73.632654 73.369224-73.632654c40.520312 0 73.369224 32.968654 73.369224 73.632654a73.760378 73.760378 0 0 1-21.489495 52.063332z" p-id="1498" fill="#1afa29"></path><path d="M512 33.040498c-264.523554 0-478.963493 214.439939-478.963493 478.963493s214.439939 478.963493 478.963493 478.963493 478.963493-214.439939 478.963493-478.963493-214.439939-478.963493-478.963493-478.963493z m199.568122 625.845631c0 20.268138-15.534383 36.720534-34.708888 36.720535H347.140766c-19.142574 0-34.708888-16.452396-34.708888-36.720535V411.030504c0-20.268138 15.534383-36.720534 34.708888-36.720534h73.752395l21.689063-36.720535c0-5.092978 12.572792-9.188116 17.354444-9.188116h104.126664c4.781652 0 17.354444 4.095138 17.354444 9.188116l21.689063 36.720535h73.752395c19.142574 0 34.708888 16.452396 34.708888 36.720534v247.855625z" p-id="1499" fill="#1afa29"></path></svg>