<?xml version="1.0" standalone="no"?><!DOCTYPE svg PUBLIC "-//W3C//DTD SVG 1.1//EN" "http://www.w3.org/Graphics/SVG/1.1/DTD/svg11.dtd"><svg t="1601640753224" class="icon" viewBox="0 0 1024 1024" version="1.1" xmlns="http://www.w3.org/2000/svg" p-id="5770" xmlns:xlink="http://www.w3.org/1999/xlink" width="200" height="200"><defs><style type="text/css"></style></defs><path d="M834.19 478.525a57.61 57.61 0 0 0-6.2-4.29L606.17 251.41c-22.559-22.56-59.138-22.56-81.698 0.004-22.562 22.557-22.562 59.136 0 81.689L659.43 468.669l-437.197-0.401c-31.905 0-57.767 25.866-57.767 57.768 0 31.903 25.862 57.767 57.767 57.767l434.573 0.398L524.47 717.13c-22.56 22.557-22.56 59.132 0 81.692 22.56 22.561 59.139 22.561 81.698 0L823.929 580.08c21.118-8.597 36.013-29.311 36.013-53.516 0-20.049-10.24-37.682-25.752-48.04z" p-id="5771" fill="#d44c6c"></path></svg>