<?xml version="1.0" standalone="no"?><!DOCTYPE svg PUBLIC "-//W3C//DTD SVG 1.1//EN" "http://www.w3.org/Graphics/SVG/1.1/DTD/svg11.dtd"><svg t="1601523118323" class="icon" viewBox="0 0 1024 1024" version="1.1" xmlns="http://www.w3.org/2000/svg" p-id="1750" xmlns:xlink="http://www.w3.org/1999/xlink" width="200" height="200"><defs><style type="text/css"></style></defs><path d="M900.716674 803.935955 123.281279 803.935955c-23.848151 0-43.188638 19.252483-43.188638 42.996257 0 23.733541 19.340487 42.986023 43.188638 42.986023l777.435395 0c23.857361 0 43.188638-19.25146 43.188638-42.986023C943.905312 823.189462 924.575058 803.935955 900.716674 803.935955zM123.281279 220.064045l777.435395 0c23.857361 0 43.188638-19.244296 43.188638-42.995233 0-23.734564-19.331277-42.987047-43.188638-42.987047L123.281279 134.081765c-23.848151 0-43.188638 19.252483-43.188638 42.987047C80.092641 200.819748 99.433128 220.064045 123.281279 220.064045zM900.716674 469.012953 123.281279 469.012953c-23.848151 0-43.188638 19.244296-43.188638 42.987047s19.340487 42.987047 43.188638 42.987047l777.435395 0c23.857361 0 43.188638-19.244296 43.188638-42.987047S924.575058 469.012953 900.716674 469.012953z" p-id="1751" fill="#1296db"></path></svg>