<?xml version="1.0" standalone="no"?><!DOCTYPE svg PUBLIC "-//W3C//DTD SVG 1.1//EN" "http://www.w3.org/Graphics/SVG/1.1/DTD/svg11.dtd"><svg t="1597854495280" class="icon" viewBox="0 0 1157 1024" version="1.1" xmlns="http://www.w3.org/2000/svg" p-id="1205" xmlns:xlink="http://www.w3.org/1999/xlink" width="225.9765625" height="200"><defs><style type="text/css"></style></defs><path d="M1114.923631 1019.948522H497.562936a29.673739 29.673739 0 0 1-29.451131-29.918609v-69.587478c0-140.911304 83.70087-265.928348 213.147826-318.441739l7.769044-3.161044-6.656-5.298087a204.087652 204.087652 0 0 1-77.178435-160.256c0-112.37287 90.223304-203.798261 200.993391-203.798261 110.747826 0 200.837565 91.425391 200.837566 203.798261 0 62.775652-28.048696 121.09913-77.04487 160.256l-6.656 5.298087 7.791304 3.161044c129.424696 52.535652 213.125565 177.530435 213.125566 318.441739v69.587478a29.384348 29.384348 0 0 1-29.317566 29.918609zM517.13024 370.309565c-11.130435 71.123478 0.26713 147.923478 45.857391 202.329044l7.568696 6.032695-8.97113 3.539479c-111.549217 44.81113-166.756174 144.027826-187.659131 258.604521-20.257391 0.75687-32.033391 0.645565-32.033391 0.645566C175.514936 809.472 45.222066 681.049043 9.537892 513.714087a424.358957 424.358957 0 0 1 58.234435-319.443478C128.922936 98.971826 223.130936 33.391304 332.899283 9.572174A424.069565 424.069565 0 0 1 421.786936 0c122.568348 0 242.220522 56.275478 321.625043 150.839652 0 0 4.051478 6.92313 10.752 19.144348-127.75513 0.623304-223.232 112.550957-237.033739 200.325565z m-101.019826-166.310956h-55.362783v218.779826l-126.664348 132.207304 41.004522 31.47687 141.022609-147.18887V203.976348z" p-id="1206"></path></svg>