<?xml version="1.0" standalone="no"?><!DOCTYPE svg PUBLIC "-//W3C//DTD SVG 1.1//EN" "http://www.w3.org/Graphics/SVG/1.1/DTD/svg11.dtd"><svg t="1597854615516" class="icon" viewBox="0 0 1024 1024" version="1.1" xmlns="http://www.w3.org/2000/svg" p-id="1553" xmlns:xlink="http://www.w3.org/1999/xlink" width="200" height="200"><defs><style type="text/css"></style></defs><path d="M512 262.967652c-137.305043 0-249.032348 111.705043-249.032348 249.032348 0 137.327304 111.705043 249.032348 249.032348 249.032348 36.196174 0 71.123478-7.613217 103.757913-22.594783 11.353043-5.209043 16.339478-18.654609 11.130435-30.007652-5.209043-11.397565-18.69913-16.361739-30.007652-11.130435-26.690783 12.243478-55.251478 18.454261-84.880696 18.454261-112.350609 0-203.753739-91.40313-203.753739-203.753739s91.40313-203.753739 203.753739-203.753739 203.753739 91.40313 203.753739 203.753739c0 35.817739-9.416348 71.056696-27.247304 101.865739-6.255304 10.818783-2.56 24.665043 8.258783 30.920348 10.841043 6.255304 24.665043 2.582261 30.920348-8.258783 21.793391-37.687652 33.324522-80.740174 33.324522-124.527304C761.032348 374.694957 649.305043 262.967652 512 262.967652zM344.086261 512c0 9.371826 7.613217 16.985043 16.985043 16.985043s16.985043-7.613217 16.985043-16.985043c0-73.861565 60.082087-133.943652 133.943652-133.943652 9.371826 0 16.985043-7.613217 16.985043-16.985043 0-9.371826-7.613217-16.985043-16.985043-16.985043C419.417043 344.086261 344.086261 419.417043 344.086261 512zM1000.69287 507.14713C955.369739 300.076522 749.857391 149.77113 512 149.77113S68.630261 300.076522 23.30713 507.14713L22.26087 512l1.046261 4.85287C68.630261 723.923478 274.142609 874.22887 512 874.22887s443.369739-150.305391 488.69287-357.376L1001.73913 512 1000.69287 507.14713zM512 828.950261c-214.861913 0-400.428522-132.986435-443.347478-316.950261C111.571478 328.036174 297.138087 195.049739 512 195.049739c214.861913 0 400.428522 132.986435 443.347478 316.950261C912.428522 695.963826 726.861913 828.950261 512 828.950261z" p-id="1554"></path></svg>