<?xml version="1.0" standalone="no"?><!DOCTYPE svg PUBLIC "-//W3C//DTD SVG 1.1//EN" "http://www.w3.org/Graphics/SVG/1.1/DTD/svg11.dtd"><svg t="1601638136977" class="icon" viewBox="0 0 1024 1024" version="1.1" xmlns="http://www.w3.org/2000/svg" p-id="4547" xmlns:xlink="http://www.w3.org/1999/xlink" width="200" height="200"><defs><style type="text/css"></style></defs><path d="M556.4 148.1c-12.9-6.1-28.1-4.1-39.1 5L306.1 329l-168.4-0.7h-0.1c-9.7 0-19 3.8-25.9 10.7-6.9 6.9-10.8 16.2-10.8 26l-0.9 293.9c0 9.8 3.8 19.1 10.7 26 6.9 7 16.2 10.8 26 10.8h170.4l210.2 175.2c6.7 5.6 15.1 8.5 23.5 8.5 5.3 0 10.6-1.1 15.6-3.5 12.9-6 21.1-19 21.1-33.3V181.3c0.1-14.2-8.1-27.1-21.1-33.2m142.5 183.7c-18.1-8.6-39.6-0.8-48.5 17.3-8.8 18.1-1.2 40 16.8 49 2.3 1.2 57.4 29.8 57.4 111.3 0 87-51.5 115.8-53.2 116.8-18.1 9.1-25.5 31.2-16.4 49.3 6.5 12.9 19.4 20.3 32.9 20.3 5.5 0 11.1-1.2 16.4-3.9 3.8-1.9 93.8-48.5 93.8-182.6-0.1-129.4-95.2-175.6-99.2-177.5m114.4-107.9c-16.9-10.9-39.4-5.9-50.5 11-11 16.9-6.2 39.6 10.7 50.8 4 2.6 98.1 66.7 98.1 226.4 0 160-90.3 224.2-93.9 226.6-16.9 11.3-21.4 34.1-10.2 51 7.1 10.6 18.7 16.4 30.6 16.4 7 0 14.1-2 20.4-6.2C823.6 796.3 945 713.1 945 512c0-201.5-126.3-284.7-131.7-288.1m0 0z" p-id="4548" fill="#962bd9"></path></svg>