<?xml version="1.0" standalone="no"?><!DOCTYPE svg PUBLIC "-//W3C//DTD SVG 1.1//EN" "http://www.w3.org/Graphics/SVG/1.1/DTD/svg11.dtd"><svg t="1597854788285" class="icon" viewBox="0 0 1024 1024" version="1.1" xmlns="http://www.w3.org/2000/svg" p-id="1760" xmlns:xlink="http://www.w3.org/1999/xlink" width="200" height="200"><defs><style type="text/css"></style></defs><path d="M930.21 59.77H93.79a34 34 0 0 0-34 34v836.44a34 34 0 0 0 34 34h836.42a34 34 0 0 0 34-34V93.79a34 34 0 0 0-34-34.02zM424.72 788.05H143.93c0-82.2 166.7-157.16 211.33-164.4 13.86-2.24 14.18-41.09 14.18-41.09s-40.72-41.1-49.6-96.37c-23.87 0-38.62-58.75-14.74-79.42-1-21.76-30.69-170.83 119.63-170.83S545.35 385 544.36 406.78c23.87 20.67 9.13 79.42-14.74 79.42-8.88 55.26-49.6 96.37-49.6 96.37s0.31 38.85 14.17 41.09c44.64 7.24 211.33 82.2 211.33 164.4z m354.8-19C760.59 693.28 612 627.21 570.19 620.43c-5.87-1-9.31-8.46-11.33-16.81-1.09-10.38 0.83-23.8 0.83-23.8s1-4.43 1.67-6.41c11.35-13.27 37.37-47.59 44.25-90.44 23.88 0 38.62-58.75 14.75-79.42 0.77-16.84 18.71-109.85-42.79-151.1a166 166 0 0 1 37.72-4C757 248.46 729 389 728.1 409.54c22.51 19.49 8.61 74.9-13.91 74.9-8.37 52.11-46.77 90.87-46.77 90.87s0.3 36.64 13.37 38.75c42.09 6.83 199.28 77.52 199.28 155z" p-id="1761"></path></svg>